<svg width="76" height="76" viewBox="0 0 76 76" fill="none" xmlns="http://www.w3.org/2000/svg">
<rect width="76" height="76" rx="38" fill="#FA706C"/>
<path d="M34.6585 28.6709H37.228C38.6469 28.6709 40.3862 29.6591 41.1127 30.8781L44.2929 36.2152H50.0752C50.7847 36.2152 51.3599 36.7904 51.3599 37.5C51.3599 38.2095 50.7847 38.7847 50.0752 38.7847H44.1707L40.9904 44.1218C40.264 45.3409 38.5248 46.3291 37.1057 46.3291H34.5363L39.0318 38.7847H30.053L28.2101 41.936H25.6406L28.2349 37.5V37.4576L25.6654 33.064H28.2349L30.0778 36.2152H39.154L34.6585 28.6709Z" fill="#2D2D2D"/>
<mask id="mask0" mask-type="alpha" maskUnits="userSpaceOnUse" x="25" y="28" width="27" height="19">
<path d="M34.6585 28.6709H37.228C38.6469 28.6709 40.3862 29.6591 41.1127 30.8781L44.2929 36.2152H50.0752C50.7847 36.2152 51.3599 36.7904 51.3599 37.5C51.3599 38.2095 50.7847 38.7847 50.0752 38.7847H44.1707L40.9904 44.1218C40.264 45.3409 38.5248 46.3291 37.1057 46.3291H34.5363L39.0318 38.7847H30.053L28.2101 41.936H25.6406L28.2349 37.5V37.4576L25.6654 33.064H28.2349L30.0778 36.2152H39.154L34.6585 28.6709Z" fill="white"/>
</mask>
<g mask="url(#mask0)">
</g>
</svg>
