<svg width="25" height="25" viewBox="0 0 25 25" fill="none" xmlns="http://www.w3.org/2000/svg">
<path d="M5.5083 13.7692H16.6783L11.7983 18.6492C11.4083 19.0392 11.4083 19.6792 11.7983 20.0692C12.1883 20.4592 12.8183 20.4592 13.2083 20.0692L19.7983 13.4792C20.1883 13.0892 20.1883 12.4592 19.7983 12.0692L13.2183 5.46923C13.0315 5.28198 12.7778 5.17674 12.5133 5.17674C12.2488 5.17674 11.9951 5.28198 11.8083 5.46923C11.4183 5.85923 11.4183 6.48923 11.8083 6.87923L16.6783 11.7692H5.5083C4.9583 11.7692 4.5083 12.2192 4.5083 12.7692C4.5083 13.3192 4.9583 13.7692 5.5083 13.7692Z" fill="#37474F"/>
<mask id="mask0" mask-type="alpha" maskUnits="userSpaceOnUse" x="4" y="5" width="17" height="16">
<path d="M5.5083 13.7692H16.6783L11.7983 18.6492C11.4083 19.0392 11.4083 19.6792 11.7983 20.0692C12.1883 20.4592 12.8183 20.4592 13.2083 20.0692L19.7983 13.4792C20.1883 13.0892 20.1883 12.4592 19.7983 12.0692L13.2183 5.46923C13.0315 5.28198 12.7778 5.17674 12.5133 5.17674C12.2488 5.17674 11.9951 5.28198 11.8083 5.46923C11.4183 5.85923 11.4183 6.48923 11.8083 6.87923L16.6783 11.7692H5.5083C4.9583 11.7692 4.5083 12.2192 4.5083 12.7692C4.5083 13.3192 4.9583 13.7692 5.5083 13.7692Z" fill="white"/>
</mask>
<g mask="url(#mask0)">
</g>
</svg>
