<svg width="76" height="76" viewBox="0 0 76 76" fill="none" xmlns="http://www.w3.org/2000/svg">
<rect width="76" height="76" rx="38" fill="#70CE88"/>
<path fill-rule="evenodd" clip-rule="evenodd" d="M43.1257 22.0833H30.1923C28.8205 22.0833 27.7085 23.2608 27.7085 24.7132V48.3823C27.7085 49.8348 28.8205 51.0122 30.1923 51.0122H47.5789C48.9506 51.0122 50.0627 49.8348 50.0627 48.3823V29.4284L43.1257 22.0833ZM30.1924 24.7132H40.1275V29.9731C40.1275 31.4255 41.2396 32.603 42.6113 32.603H47.579V48.3823H30.1924V24.7132ZM42.6113 29.9731V25.2578L47.0647 29.9731H42.6113ZM42.9749 35.618L37.6436 41.263L34.7961 38.2479L33.0397 40.1075L37.6436 44.9822L44.7312 37.4776L42.9749 35.618Z" fill="#262626"/>
</svg>
